<svg width="23" height="24" viewBox="0 0 23 24" fill="none" xmlns="http://www.w3.org/2000/svg">
<path d="M22.9882 12.2244C22.9882 11.2412 22.9099 10.5236 22.7406 9.77954H11.7294V14.2175H18.1927C18.0625 15.3204 17.3588 16.9814 15.795 18.0975L15.7731 18.246L19.2547 20.9962L19.4959 21.0208C21.7111 18.9346 22.9882 15.8652 22.9882 12.2244Z" fill="#4285F4"/>
<path d="M11.7288 23.9176C14.8953 23.9176 17.5536 22.8546 19.4953 21.0209L15.7945 18.0976C14.8041 18.8018 13.4749 19.2935 11.7288 19.2935C8.62746 19.2935 5.99521 17.2074 5.05689 14.324L4.91936 14.3359L1.2992 17.1927L1.25186 17.3269C3.18043 21.2335 7.14186 23.9176 11.7288 23.9176Z" fill="#34A853"/>
<path d="M5.05715 14.3238C4.80957 13.5797 4.66628 12.7824 4.66628 11.9586C4.66628 11.1347 4.80957 10.3375 5.04412 9.59341L5.03757 9.43494L1.37205 6.53223L1.25212 6.59039C0.457265 8.21149 0.00117493 10.0319 0.00117493 11.9586C0.00117493 13.8853 0.457265 15.7056 1.25212 17.3267L5.05715 14.3238Z" fill="#FBBC05"/>
<path d="M11.7288 4.62403C13.931 4.62403 15.4165 5.59402 16.2636 6.40461L19.5734 3.10928C17.5406 1.1826 14.8953 0 11.7288 0C7.14186 0 3.18043 2.68406 1.25186 6.59056L5.04386 9.59359C5.99521 6.7102 8.62745 4.62403 11.7288 4.62403Z" fill="#EB4335"/>
</svg>
