<?xml version="1.0" encoding="utf-8"?>
<!-- Generator: Adobe Illustrator 24.0.2, SVG Export Plug-In . SVG Version: 6.00 Build 0)  -->
<svg version="1.1" id="Artwork" xmlns="http://www.w3.org/2000/svg" xmlns:xlink="http://www.w3.org/1999/xlink" x="0px" y="0px"
	 viewBox="0 0 512 512" style="enable-background:new 0 0 512 512;" xml:space="preserve">
<style type="text/css">
	.st0{fill:#F1F1F1;}
	.st1{fill:#CCCCCC;}
	.st2{fill:#E8E8E8;}
	.st3{fill:#C95623;}
	.st4{fill:#FF732B;}
	.st5{fill:#E0E0E0;}
</style>
<path class="st0" d="M453.1,109.3c0-2.7-1.1-5.2-2.9-7.1L350.7,2.8c-1.9-1.9-4.4-2.9-7.1-2.9H69.2c-5.5,0-10,4.5-10,10v492
	c0,5.5,4.5,10,10,10l0,0h373.8c5.5,0,10-4.5,10-10l0,0V109.3z"/>
<path class="st1" d="M452.7,106.8c-0.4-1.7-1.3-3.3-2.6-4.6L350.7,2.8c-1.9-1.9-4.4-2.9-7.1-2.9v94.9c0,6.6,5.4,12,12,12
	L452.7,106.8z"/>
<path class="st2" d="M452.7,106.8h-97.1c-6.6,0-12-5.4-12-12V105c0,6.6,4.1,15,12.4,15h97v-10.7C453.1,108.4,453,107.6,452.7,106.8
	L452.7,106.8z"/>
<path class="st3" d="M59.2,215.3l-27,27.1h27V215.3z"/>
<path class="st3" d="M452.7,215.3l27,27.1h-27V215.3z"/>
<path class="st4" d="M472.1,412.2H39.9c-5.5,0-10-4.5-10-10V248.8c0-5.5,4.5-10,10-10h432.2c5.5,0,10,4.5,10,10v153.3
	C482.1,407.7,477.6,412.2,472.1,412.2C472.1,412.2,472.1,412.2,472.1,412.2L472.1,412.2z"/>
<path class="st5" d="M59.2,412.2h393.9v13H59.2L59.2,412.2z"/>
</svg>
